<svg width="24" height="24" viewBox="0 0 24 24" fill="none" xmlns="http://www.w3.org/2000/svg">
<g clip-path="url(#clip0_15_1115)">
<g filter="url(#filter0_d_15_1115)">
<path d="M7.75745 10.5858L9.17166 9.17154L12.0001 12L14.8285 9.17157L16.2427 10.5858L12.0001 14.8284L7.75745 10.5858Z" fill="white"/>
<path fill-rule="evenodd" clip-rule="evenodd" d="M1 12C1 5.92487 5.92487 1 12 1C18.0751 1 23 5.92487 23 12C23 18.0751 18.0751 23 12 23C5.92487 23 1 18.0751 1 12ZM12 21C7.02944 21 3 16.9706 3 12C3 7.02944 7.02944 3 12 3C16.9706 3 21 7.02944 21 12C21 16.9706 16.9706 21 12 21Z" fill="white"/>
<path d="M12.3536 12.3535L14.8285 9.87868L15.5356 10.5858L12.0001 14.1213L8.46455 10.5858L9.17166 9.87865L11.6465 12.3535L12.0001 12.7071L12.3536 12.3535ZM2.5 12C2.5 17.2467 6.7533 21.5 12 21.5C17.2467 21.5 21.5 17.2467 21.5 12C21.5 6.7533 17.2467 2.5 12 2.5C6.75329 2.5 2.5 6.75329 2.5 12ZM1.5 12C1.5 6.20101 6.20101 1.5 12 1.5C17.799 1.5 22.5 6.20101 22.5 12C22.5 17.799 17.799 22.5 12 22.5C6.20101 22.5 1.5 17.799 1.5 12Z" stroke="white"/>
</g>
</g>
<defs>
<filter id="filter0_d_15_1115" x="-3" y="1" width="30" height="30" filterUnits="userSpaceOnUse" color-interpolation-filters="sRGB">
<feFlood flood-opacity="0" result="BackgroundImageFix"/>
<feColorMatrix in="SourceAlpha" type="matrix" values="0 0 0 0 0 0 0 0 0 0 0 0 0 0 0 0 0 0 127 0" result="hardAlpha"/>
<feOffset dy="4"/>
<feGaussianBlur stdDeviation="2"/>
<feComposite in2="hardAlpha" operator="out"/>
<feColorMatrix type="matrix" values="0 0 0 0 0 0 0 0 0 0 0 0 0 0 0 0 0 0 0.25 0"/>
<feBlend mode="normal" in2="BackgroundImageFix" result="effect1_dropShadow_15_1115"/>
<feBlend mode="normal" in="SourceGraphic" in2="effect1_dropShadow_15_1115" result="shape"/>
</filter>
<clipPath id="clip0_15_1115">
<rect width="24" height="24" fill="white"/>
</clipPath>
</defs>
</svg>
